<?xml version="1.0" encoding="UTF-8" standalone="no"?>
<!DOCTYPE svg PUBLIC "-//W3C//DTD SVG 1.1//EN"
 "http://www.w3.org/Graphics/SVG/1.1/DTD/svg11.dtd">
<!-- Generated by graphviz version 2.43.0 (0)
 -->
<!-- Title: UPSController Pages: 1 -->
<svg width="499pt" height="420pt"
 viewBox="0.00 0.00 499.39 420.00" xmlns="http://www.w3.org/2000/svg" xmlns:xlink="http://www.w3.org/1999/xlink">
<g id="graph0" class="graph" transform="scale(1 1) rotate(0) translate(4 416)">
<title>UPSController</title>
<polygon fill="white" stroke="transparent" points="-4,4 -4,-416 495.39,-416 495.39,4 -4,4"/>
<!-- controller -->
<g id="node1" class="node">
<title>controller</title>
<ellipse fill="none" stroke="black" cx="83.19" cy="-174.5" rx="83.39" ry="18"/>
<text text-anchor="middle" x="83.19" y="-170.8" font-family="Times,serif" font-size="14.00">Microcontroller</text>
</g>
<!-- charger -->
<g id="node2" class="node">
<title>charger</title>
<polygon fill="none" stroke="black" points="491.39,-412 376.39,-412 376.39,-297 491.39,-297 491.39,-412"/>
<text text-anchor="middle" x="433.89" y="-350.8" font-family="Times,serif" font-size="14.00">Power Supply</text>
</g>
<!-- controller&#45;&gt;charger -->
<g id="edge1" class="edge">
<title>controller&#45;&gt;charger</title>
<path fill="none" stroke="black" d="M94.91,-192.48C120.76,-235.82 184.39,-342.5 184.39,-342.5 184.39,-342.5 292.44,-347.72 366.04,-351.27"/>
<polygon fill="black" stroke="black" points="366.03,-354.78 376.19,-351.76 366.37,-347.78 366.03,-354.78"/>
<text text-anchor="middle" x="271.39" y="-354.3" font-family="Times,serif" font-size="14.00">Voltage control</text>
</g>
<!-- inverter -->
<g id="node3" class="node">
<title>inverter</title>
<polygon fill="none" stroke="black" points="471.39,-189 396.39,-189 396.39,-114 471.39,-114 471.39,-189"/>
<text text-anchor="middle" x="433.89" y="-147.8" font-family="Times,serif" font-size="14.00">Inverter</text>
</g>
<!-- controller&#45;&gt;inverter -->
<g id="edge7" class="edge">
<title>controller&#45;&gt;inverter</title>
<path fill="none" stroke="black" d="M156.48,-183.16C172.28,-185.05 184.39,-186.5 184.39,-186.5 184.39,-186.5 358.39,-186.5 358.39,-186.5 358.39,-186.5 371.6,-180.29 386.91,-173.1"/>
<polygon fill="black" stroke="black" points="388.51,-176.21 396.07,-168.79 385.53,-169.88 388.51,-176.21"/>
<text text-anchor="middle" x="271.39" y="-190.3" font-family="Times,serif" font-size="14.00">Power on/off</text>
</g>
<!-- battery -->
<g id="node4" class="node">
<title>battery</title>
<polygon fill="none" stroke="black" points="469.39,-71 398.39,-71 398.39,0 469.39,0 469.39,-71"/>
<text text-anchor="middle" x="433.89" y="-31.8" font-family="Times,serif" font-size="14.00">Battery</text>
</g>
<!-- controller&#45;&gt;battery -->
<!-- relay -->
<g id="node5" class="node">
<title>relay</title>
<polygon fill="none" stroke="black" points="461.89,-278.5 405.89,-278.5 405.89,-222.5 461.89,-222.5 461.89,-278.5"/>
<text text-anchor="middle" x="433.89" y="-246.8" font-family="Times,serif" font-size="14.00">Relay</text>
</g>
<!-- controller&#45;&gt;relay -->
<g id="edge11" class="edge">
<title>controller&#45;&gt;relay</title>
<path fill="none" stroke="black" d="M131.65,-189.18C157.54,-197.2 184.39,-205.5 184.39,-205.5 184.39,-205.5 326.45,-231.23 395.75,-243.78"/>
<polygon fill="black" stroke="black" points="395.35,-247.26 405.82,-245.6 396.6,-240.37 395.35,-247.26"/>
<text text-anchor="middle" x="271.39" y="-239.3" font-family="Times,serif" font-size="14.00">Bypass</text>
</g>
<!-- charger&#45;&gt;controller -->
<g id="edge2" class="edge">
<title>charger&#45;&gt;controller</title>
<path fill="none" stroke="black" d="M376.04,-330.85C365.84,-326.6 358.39,-323.5 358.39,-323.5 358.39,-323.5 184.39,-304.5 184.39,-304.5 184.39,-304.5 133.36,-238.3 104.14,-200.38"/>
<polygon fill="black" stroke="black" points="106.79,-198.09 97.91,-192.3 101.25,-202.36 106.79,-198.09"/>
<text text-anchor="middle" x="271.39" y="-327.3" font-family="Times,serif" font-size="14.00">I out measure</text>
</g>
<!-- charger&#45;&gt;controller -->
<g id="edge3" class="edge">
<title>charger&#45;&gt;controller</title>
<path fill="none" stroke="black" d="M376.04,-301.85C365.84,-292.41 358.39,-285.5 358.39,-285.5 358.39,-285.5 184.39,-254.5 184.39,-254.5 184.39,-254.5 143.46,-221.82 113.92,-198.24"/>
<polygon fill="black" stroke="black" points="115.93,-195.36 105.93,-191.86 111.56,-200.83 115.93,-195.36"/>
<text text-anchor="middle" x="271.39" y="-289.3" font-family="Times,serif" font-size="14.00">(OPT) Power in measure</text>
</g>
<!-- inverter&#45;&gt;controller -->
<g id="edge4" class="edge">
<title>inverter&#45;&gt;controller</title>
<path fill="none" stroke="black" d="M396.12,-153.93C343.51,-157.4 245.15,-163.88 172.9,-168.65"/>
<polygon fill="black" stroke="black" points="172.63,-165.16 162.88,-169.31 173.09,-172.14 172.63,-165.16"/>
<text text-anchor="middle" x="271.39" y="-171.3" font-family="Times,serif" font-size="14.00">I In measure</text>
</g>
<!-- inverter&#45;&gt;controller -->
<g id="edge5" class="edge">
<title>inverter&#45;&gt;controller</title>
<path fill="none" stroke="black" d="M396.07,-144.09C377.3,-140.31 358.39,-136.5 358.39,-136.5 358.39,-136.5 184.39,-136.5 184.39,-136.5 184.39,-136.5 159.63,-145.89 134.73,-155.33"/>
<polygon fill="black" stroke="black" points="133.34,-152.12 125.23,-158.93 135.83,-158.66 133.34,-152.12"/>
<text text-anchor="middle" x="271.39" y="-140.3" font-family="Times,serif" font-size="14.00">(OPT) I out &#160;measure</text>
</g>
<!-- inverter&#45;&gt;controller -->
<g id="edge6" class="edge">
<title>inverter&#45;&gt;controller</title>
<path fill="none" stroke="black" d="M396.07,-134.7C377.3,-126.13 358.39,-117.5 358.39,-117.5 358.39,-117.5 184.39,-117.5 184.39,-117.5 184.39,-117.5 150.91,-136.55 122.65,-152.62"/>
<polygon fill="black" stroke="black" points="120.67,-149.72 113.71,-157.71 124.13,-155.8 120.67,-149.72"/>
<text text-anchor="middle" x="271.39" y="-121.3" font-family="Times,serif" font-size="14.00">(OPT) V out &#160;measure</text>
</g>
<!-- battery&#45;&gt;controller -->
<g id="edge8" class="edge">
<title>battery&#45;&gt;controller</title>
<path fill="none" stroke="black" d="M398.33,-35.64C330.05,-35.91 184.39,-36.5 184.39,-36.5 184.39,-36.5 132.1,-108.51 103.07,-148.5"/>
<polygon fill="black" stroke="black" points="100.13,-146.59 97.09,-156.74 105.79,-150.71 100.13,-146.59"/>
<text text-anchor="middle" x="271.39" y="-40.3" font-family="Times,serif" font-size="14.00">Voltage measure</text>
</g>
<!-- battery&#45;&gt;controller -->
<g id="edge9" class="edge">
<title>battery&#45;&gt;controller</title>
<path fill="none" stroke="black" d="M398.25,-27.13C378.8,-22.43 358.39,-17.5 358.39,-17.5 358.39,-17.5 184.39,-17.5 184.39,-17.5 184.39,-17.5 129.79,-103.06 101.2,-147.85"/>
<polygon fill="black" stroke="black" points="98.12,-146.18 95.69,-156.49 104.02,-149.94 98.12,-146.18"/>
<text text-anchor="middle" x="271.39" y="-21.3" font-family="Times,serif" font-size="14.00">Current measure</text>
</g>
</g>
</svg>
